<?xml version="1.0" encoding="UTF-8"?>
<svg xmlns="http://www.w3.org/2000/svg" version="1.1" width="512" height="512" x="0" y="0" viewBox="0 0 512 512" style="enable-background:new 0 0 512 512" xml:space="preserve" class=""><g><path fill="#026ca2" d="m296 344 147.882 73.941a60 60 0 0 1 32.564 45.18L480 488H32l3.554-24.879a60 60 0 0 1 32.564-45.18L216 344z" opacity="1" data-original="#026ca2"/><path fill="#cbcbcb" d="M216 344h80v144h-80z" opacity="1" data-original="#cbcbcb"/><path fill="#fdc9a6" d="M216 312v32l-8 24v8h96v-8l-8-24v-32z" opacity="1" data-original="#fdc9a6"/><path fill="#fdc9a6" d="M296 312v19.64c-.08.06-.17.11-.25.17a70.9 70.9 0 0 1-79.75-.17V312z" opacity="1" data-original="#fdc9a6"/><path fill="#e6af89" d="M296 312v19.64c-.08.06-.17.11-.25.17a70.9 70.9 0 0 1-79.75-.17V312z" opacity="1" data-original="#e6af89"/><path fill="#015078" d="M72 488v-32a8 8 0 0 1 16 0v32zM424 488v-32a8 8 0 0 1 16 0v32z" opacity="1" data-original="#015078"/><path fill="#0296e5" d="M230.857 388.571 240 416h32l9.143-27.429L256 376z" opacity="1" data-original="#0296e5"/><path fill="#026ca2" d="m240 416-8 72h48l-8-72z" opacity="1" data-original="#026ca2"/><path fill="#55300b" d="m360.925 171.923 3.421-13.6a91.909 91.909 0 0 0-19.565-82.485A84.136 84.136 0 0 0 258.348 44.3c-5.306 1.236-10.592 2.465-15.636 3.637A76.04 76.04 0 0 0 191.9 88h-2.124a43.754 43.754 0 0 0-35 17.5 43.754 43.754 0 0 0-8.311 32.44L151.9 176l2.913 24H352l6.585-20.007q1.315-3.993 2.34-8.07z" opacity="1" data-original="#55300b"/><path fill="#fdc9a6" d="M256 328a70.9 70.9 0 0 1-65.827-44.567A198.156 198.156 0 0 1 176 209.837V152l24-40.73A136.076 136.076 0 0 0 297.087 152H336v57.837a198.156 198.156 0 0 1-14.173 73.6A70.9 70.9 0 0 1 256 328z" opacity="1" data-original="#fdc9a6"/><g fill="#55300b"><path d="M304 184h-24a8 8 0 0 1 0-16h24a8 8 0 0 1 0 16z" fill="#55300b" opacity="1" data-original="#55300b"/><circle cx="290" cy="202" r="10" fill="#55300b" opacity="1" data-original="#55300b"/><path d="M232 184h-24a8 8 0 0 1 0-16h24a8 8 0 0 1 0 16z" fill="#55300b" opacity="1" data-original="#55300b"/><circle cx="222" cy="202" r="10" fill="#55300b" opacity="1" data-original="#55300b"/></g><path fill="#e6af89" d="M272 280h-32a8 8 0 0 1 0-16h32a8 8 0 0 1 0 16zM264 248h-16a8 8 0 0 1-8-8v-24a8 8 0 0 1 16 0v16h8a8 8 0 0 1 0 16z" opacity="1" data-original="#e6af89"/><path fill="#fdc9a6" d="M176 176h-11.056A20.944 20.944 0 0 0 144 196.944v14.112a20.944 20.944 0 0 0 2.211 9.366A20.944 20.944 0 0 0 164.944 232H179zM336 176h11.056A20.944 20.944 0 0 1 368 196.944v14.112a20.944 20.944 0 0 1-2.211 9.366A20.944 20.944 0 0 1 347.056 232H333z" opacity="1" data-original="#fdc9a6"/><path fill="#ebebeb" d="m216 344 40 32-48 24v-32zM296 344l-40 32 48 24v-32z" opacity="1" data-original="#ebebeb"/><path fill="#0296e5" d="M216 488h-40l-24-72 64-72zM296 488h40l24-72-64-72z" opacity="1" data-original="#0296e5"/></g></svg>