<svg xmlns="http://www.w3.org/2000/svg" viewBox="0 0 48 48" width="48px" height="48px">
  <circle cx="24" cy="24" r="20" fill="#29b6f6"/>
  <path fill="#ffffff" d="M33.95,15l-3.746,19.126c0,0-0.161,0.874-1.245,0.874
                           c-0.576,0-0.873-0.274-0.873-0.274l-8.114-6.733l-3.97-2.001
                           l-5.095-1.355c0,0-0.907-0.262-0.907-1.012c0-0.625 0.933-0.923 0.933-0.923
                           l21.316-8.468c-0.001-0.001 0.651-0.235 1.126-0.234
                           c0.292,0 0.625,0.125 0.625,0.5c0,0.25-0.05,0.5-0.05,0.5z"/>
  <path fill="#b0bec5" d="M23,30.505l-3.426,3.374c0,0-0.149,0.115-0.348,0.12
                          c-0.069,0.002-0.143-0.009-0.219-0.043l0.964-5.965z"/>
  <path fill="#cfd8dc" d="M29.897,18.196c-0.169-0.22-0.481-0.26-0.701-0.093
                          l-13.196,7.897c0,0 2.106,5.892 2.427,6.912
                          c0.322,1.021 0.58,1.045 0.58,1.045l0.964-5.965
                          l9.832-9.096c0.22-0.167 0.261-0.48 0.094-0.7z"/>
</svg>
