<svg xmlns="http://www.w3.org/2000/svg" viewBox="0 0 48 48" width="48px" height="48px">
  <!-- Green Circle Background -->
  <circle cx="24" cy="24" r="20" fill="#40c351"/>
  
  <!-- White chat bubble -->
  <path fill="#ffffff" d="M19.268,16.045c-0.355,-0.79-0.729,-0.806-1.068,-0.82
                           c-0.277,-0.012-0.593,-0.011-0.909,-0.011
                           c-0.316,0-0.83,0.119-1.265,0.594c-0.435,0.475-1.661,1.622-1.661,3.956
                           c0,2.334 1.7,4.59 1.937,4.906
                           c0.237,0.316 3.282,5.259 8.104,7.161
                           c4.007,1.58 4.823,1.266 5.693,1.187
                           c0.87,-0.079 2.807,-1.147 3.202,-2.255
                           c0.395,-1.108 0.395,-2.057 0.277,-2.255
                           c-0.119,-0.198-0.435,-0.316-0.909,-0.554
                           c-0.474,-0.238-2.807,-1.385-3.242,-1.543
                           c-0.435,-0.158-0.751,-0.237-1.068,0.238
                           c-0.316,0.474-1.225,1.543-1.502,1.859
                           c-0.277,0.317-0.554,0.357-1.028,0.119
                           c-0.474,-0.238-2.002,-0.738-3.815,-2.354
                           c-1.41,-1.257-2.362,-2.81-2.639,-3.285
                           c-0.277,-0.474-0.03,-0.731 0.208,-0.968
                           c0.213,-0.213 0.474,-0.554 0.712,-0.831
                           c0.237,-0.277 0.316,-0.475 0.474,-0.791
                           c0.158,-0.317 0.079,-0.594-0.04,-0.831
                           c-0.117,-0.238-1.039,-2.584-1.461,-3.522z"/>
</svg>
